<?xml version="1.0" standalone="no"?>
<!DOCTYPE svg PUBLIC "-//W3C//DTD SVG 20010904//EN"
 "http://www.w3.org/TR/2001/REC-SVG-20010904/DTD/svg10.dtd">
<svg version="1.0" xmlns="http://www.w3.org/2000/svg"
 width="300.000000pt" height="300.000000pt" viewBox="0 0 300.000000 300.000000"
 preserveAspectRatio="xMidYMid meet">
<metadata>
Created by potrace 1.10, written by Peter Selinger 2001-2011
</metadata>
<g transform="translate(0.000000,300.000000) scale(0.100000,-0.100000)"
fill="#000000" stroke="none">
<path d="M724 2118 c-150 -20 -227 -92 -303 -281 -16 -41 -14 -72 8 -91 17
-16 24 -16 77 -2 60 15 288 27 357 18 22 -2 37 -10 37 -18 0 -11 -39 -125
-136 -394 -12 -36 -37 -105 -55 -155 -17 -49 -37 -103 -44 -120 -22 -51 -36
-115 -30 -135 10 -30 48 -37 230 -42 96 -3 241 58 340 143 15 13 68 71 118
129 91 105 106 120 119 120 4 0 28 -23 55 -52 195 -208 293 -287 403 -322 93
-29 265 -40 438 -27 161 12 198 22 208 53 8 27 -16 50 -83 78 -141 57 -288
165 -476 349 -101 99 -137 140 -135 155 4 28 93 88 377 253 273 158 342 202
394 251 41 40 45 55 20 80 -14 15 -45 17 -242 18 -254 0 -316 -8 -415 -54 -37
-18 -71 -32 -73 -32 -3 0 -3 9 0 20 3 11 -3 30 -13 43 l-18 22 -549 1 c-301 0
-576 -3 -609 -8z m1157 -45 c-22 -41 -110 -140 -158 -179 -79 -64 -145 -85
-294 -91 l-125 -6 -103 -286 c-57 -157 -117 -312 -134 -344 -40 -77 -130 -159
-203 -186 -58 -22 -190 -49 -198 -40 -5 4 239 700 283 811 11 25 18 48 16 50
-2 2 -102 1 -222 -2 -196 -5 -223 -8 -265 -27 -27 -12 -48 -21 -48 -19 0 7 54
135 71 168 26 51 75 105 113 125 71 38 126 41 709 42 538 1 567 0 558 -16z
m755 8 c-12 -19 -135 -100 -278 -184 -82 -48 -212 -125 -291 -171 -131 -77
-287 -184 -287 -196 0 -10 314 -318 370 -363 119 -95 319 -207 373 -207 9 0
17 -4 17 -9 0 -14 -315 -34 -434 -27 -135 7 -182 18 -266 59 -69 34 -181 135
-313 280 -61 68 -68 80 -56 93 13 12 30 -2 139 -118 139 -147 214 -207 296
-238 75 -28 225 -42 362 -34 l113 7 -40 18 c-119 53 -266 172 -479 387 l-152
154 57 45 c96 75 206 145 464 295 135 79 257 151 270 160 l24 18 -27 -10 c-38
-13 -281 -141 -433 -228 -314 -179 -531 -342 -671 -504 -252 -292 -353 -361
-549 -382 -67 -7 -55 3 35 28 67 18 163 78 208 130 56 65 86 136 274 659 10
27 10 27 109 27 54 0 99 -2 99 -5 0 -3 -9 -23 -20 -45 -11 -22 -20 -42 -20
-46 0 -3 39 31 88 76 185 174 389 307 502 329 62 12 523 14 516 2z m-775 -754
c101 -101 221 -212 266 -247 45 -34 80 -66 77 -71 -6 -11 -186 -2 -238 12 -95
25 -158 70 -298 214 -76 77 -138 145 -138 151 0 11 128 124 141 124 3 0 89
-83 190 -183z"/>
<path d="M1235 2040 c-543 -5 -551 -5 -591 -27 -23 -12 -54 -36 -68 -54 -30
-35 -80 -128 -73 -135 2 -3 17 1 33 7 18 7 119 14 263 17 226 4 234 4 227 -14
-5 -11 -72 -199 -151 -419 -79 -220 -146 -408 -150 -417 -6 -15 -2 -15 51 -1
132 34 212 101 267 223 19 41 79 199 133 352 l99 276 150 4 c180 4 214 16 313
114 55 55 77 89 55 82 -5 -1 -255 -5 -558 -8z m444 -39 l35 -1 -33 -34 c-52
-54 -125 -75 -263 -77 -174 -3 -170 -1 -239 -194 -172 -484 -181 -504 -237
-562 -42 -43 -108 -83 -137 -83 -19 0 -17 7 20 110 13 36 49 137 80 225 31 88
76 214 99 280 59 164 59 169 37 196 -19 24 -21 24 -234 24 -119 0 -219 3 -223
8 -8 8 27 49 69 79 16 11 52 23 80 27 43 5 835 7 946 2z"/>
<path d="M2245 2041 c-148 -6 -151 -6 -225 -44 -140 -70 -330 -226 -542 -447
-159 -164 -191 -208 -97 -132 163 132 484 327 857 519 111 58 202 107 202 109
0 2 -10 3 -22 2 -13 -1 -90 -4 -173 -7z m-5 -55 c-8 -7 -62 -38 -120 -68 -128
-67 -185 -99 -270 -148 -36 -20 -87 -50 -115 -66 -27 -16 -59 -32 -70 -36 -31
-12 98 105 208 188 147 112 216 142 322 143 51 1 57 -1 45 -13z"/>
</g>
</svg>
